<?xml version="1.0" encoding="utf-8"?>
<!-- Generator: Adobe Illustrator 19.0.0, SVG Export Plug-In . SVG Version: 6.00 Build 0)  -->
<svg version="1.1" xmlns="http://www.w3.org/2000/svg" xmlns:xlink="http://www.w3.org/1999/xlink" x="0px" y="0px"
	 viewBox="0 0 595.3 841.9" style="enable-background:new 0 0 595.3 841.9;" xml:space="preserve">
<style type="text/css">
	.st0{fill:#27AAE1;}
	.st1{fill:none;stroke:#2BB673;stroke-width:9;stroke-miterlimit:10;}
	.st2{fill:#27AAE1;stroke:#000000;stroke-width:9;stroke-miterlimit:10;}
	.st3{fill:#2BB673;stroke:#000000;stroke-width:9;stroke-miterlimit:10;}
	.st4{fill:#414042;}
	.st5{fill:#58595B;stroke:#58595B;stroke-width:5;stroke-miterlimit:10;}
	.st6{fill:#BCBEC0;stroke:#BCBEC0;stroke-width:5;stroke-miterlimit:10;}
	.st7{fill:#2BB673;}
	.st8{fill:#BCBEC0;}
	.st9{fill:#6D6E71;}
	.st10{stroke:#000000;stroke-miterlimit:10;}
</style>
<g id="Layer_1">
	<g id="Layer_5">
		<path id="XMLID_12_" class="st0" d="M526.9,617.7l-68-171.5l-77.9-70.7l-74.9,9.7L384,486.4L468,620.2l51,51.5h5l8-8.6
			c0,0,1-28.4,0-30.4C531,630.7,526.9,617.7,526.9,617.7z"/>
		<path id="XMLID_10_" class="st0" d="M307.9,371.2l-9.4,5.4c0,0,17,9.5,17.4,9.5s32.6-2.5,37.9-2.5s27.6-7.8,27.6-7.8l-14-7.9
			c0,0-44.8-20.4-47.3-20.8s-16.5,1-16.5,1l0.8,7.2l5,9.4c1.1,2,0.7,4.1-0.8,5.9C308.6,370.8,307.9,370.2,307.9,371.2z"/>
	</g>
</g>
<g id="Layer_4">
	<path id="XMLID_89_" class="st1" d="M264.3,206.9"/>
	<g id="XMLID_86_">
		<path id="XMLID_88_" class="st2" d="M301.8,251.9c0,0-12.6-47.4-33.6-47.7s-16.7,26.9-16.7,26.9l12.2,56.3l35.3,67.5
			c0.2,0.5,0.5,0.9,0.8,1.3c1.7,2.4,7.8,11.1,6,11.8"/>
		<polyline id="XMLID_87_" class="st2" points="296.7,252.7 315,285 358.2,342.5 384,373 		"/>
	</g>
	<path id="XMLID_85_" class="st3" d="M384,373"/>
	<g id="XMLID_78_">
		<g id="XMLID_83_">
			<path id="XMLID_1_" class="st0" d="M382.1,375.8c-0.5,2.8-39.9-15.8-74-20.1c-0.8-0.1-1.6-0.6-1.9-1.4l-4.4-9.1
				c-6.5-21-5.7-38.3,1.7-42.2c7.3-3.8,21.1,5.6,28.2,13c8.8,9.1,13.2,14.1,26.8,29c2.6,2.8,2.8,2.8,6,6.3
				c9.4,10.4,9.8,14.5,15,21.2C380.9,374.4,382.2,375.4,382.1,375.8z"/>
		</g>
		<g id="XMLID_82_">
		</g>
	</g>
</g>
<g id="Layer_3">
	<polygon id="XMLID_43_" class="st4" points="155.6,230.3 27.6,169.4 25.1,163.8 157.3,226.7 	"/>
	<path id="XMLID_42_" class="st5" d="M176.8,264.9l-88.8-42.2c-6-2.8-8.5-10-5.7-16l10-21c2.8-6,10-8.5,16-5.7l88.8,42.2
		c6,2.8,8.5,10,5.7,16l-10,21C190,265.2,182.8,267.7,176.8,264.9z"/>
	<path id="XMLID_41_" class="st6" d="M282.6,338.2L94.7,248.8c-6-2.8-8.5-10-5.7-16l28.4-59.6c2.8-6,10-8.5,16-5.7l187.9,89.4
		c6,2.8,8.5,10,5.7,16l-28.4,59.6C295.7,338.5,288.5,341,282.6,338.2z"/>
	<g id="XMLID_40_">
		<path id="XMLID_44_" class="st7" d="M197.2,297.2L96.4,249.2c-6-2.8-8.5-10-5.7-16l28.4-59.6c2.8-6,10-8.5,16-5.7l100.7,47.9
			c6,2.8,8.5,10,5.7,16l-28.4,59.6C210.3,297.4,203.1,300,197.2,297.2z"/>
		<path id="XMLID_22_" class="st8" d="M196.1,299.3c0,0-24.2-11.7-60.5-29.3c-9.1-4.4-18.9-9.2-29.3-14.2c-2.6-1.3-5.2-2.5-7.9-3.8
			c-0.7-0.3-1.3-0.6-2-1l-0.5-0.2l-0.2-0.1l-0.1-0.1l-0.2-0.1c-0.3-0.2-0.6-0.3-1-0.6c-0.8-0.5-1.4-1-2.1-1.6
			c-0.6-0.6-1.2-1.3-1.7-2c-2-2.8-2.9-6.4-2.4-9.9l0.3-1.3l0.4-1.3l0.5-1.2l0.5-1.1c0.7-1.4,1.4-2.8,2-4.2
			c5.4-11.4,11.1-23.1,16.8-35.1c2.8-6,5.7-12,8.6-18l0.5-1.1l0.6-1.2c0.3-0.4,0.5-0.8,0.8-1.2c0.3-0.4,0.6-0.7,0.9-1.1
			c1.3-1.4,2.9-2.5,4.6-3.2c3.5-1.5,7.6-1.4,11,0.2c12.2,5.7,24.3,11.5,36.3,17.1c12,5.6,23.8,11.2,35.2,16.5
			c5.7,2.7,11.3,5.3,16.8,7.9c2.7,1.3,5.5,2.6,8.2,3.8c1.3,0.6,2.7,1.3,4,1.9l0.6,0.3l0.5,0.3l0.5,0.3c0.2,0.1,0.4,0.2,0.6,0.4
			c0.8,0.5,1.4,1,2.1,1.6c2.5,2.3,4,5.5,4.3,8.8c0.2,1.6,0,3.3-0.4,4.9l-0.3,1.2l-0.5,1.1c-0.3,0.7-0.6,1.3-0.9,1.9
			c-2.3,4.9-4.5,9.7-6.7,14.2c-4.3,9.1-8.2,17.5-11.7,24.9c-1.7,3.7-3.4,7.2-4.9,10.4c-0.8,1.6-1.5,3.1-2.2,4.6
			c-0.3,0.7-0.7,1.5-1,2.1c-0.2,0.3-0.3,0.7-0.5,1l-0.2,0.5l-0.1,0.1l-0.1,0.2l-0.1,0.2l-0.3,0.5c-0.1,0.2-0.2,0.3-0.3,0.5
			c-0.3,0.4-0.5,0.8-0.8,1.1c-0.3,0.3-0.5,0.6-0.8,1c-0.3,0.3-0.6,0.6-0.9,0.9c-1.2,1.1-2.4,1.9-3.7,2.5c-2.5,1.1-4.9,1.4-6.8,1.4
			c-1.9-0.1-3.3-0.5-4.2-0.8C196.6,299.5,196.1,299.3,196.1,299.3z M198.2,295c0,0,0.3,0.1,0.9,0.4c0.6,0.2,1.5,0.5,2.8,0.5
			c1.2,0,2.8-0.2,4.5-1c1.6-0.8,3.3-2.1,4.4-4.3c2.5-5.3,5.6-11.7,9.1-19c3.6-7.4,7.6-15.7,12-24.8c2.2-4.5,4.5-9.3,6.8-14.2
			c0.3-0.6,0.6-1.3,0.9-1.8l0.3-0.8l0.2-0.8c0.3-1.1,0.4-2.2,0.3-3.4c-0.2-2.3-1.2-4.6-3-6.3c-0.4-0.4-0.9-0.8-1.3-1.1
			c-0.1-0.1-0.2-0.2-0.4-0.2l-0.5-0.3l-0.5-0.3l-0.4-0.2c-1.3-0.6-2.6-1.3-4-1.9c-2.7-1.3-5.4-2.6-8.1-3.9c-5.5-2.6-11-5.3-16.7-8.1
			c-11.4-5.5-23.1-11.1-35-16.9c-11.9-5.7-24.1-11.5-36.2-17.4c-2.7-1.3-5.8-1.3-8.6-0.2c-1.4,0.6-2.6,1.4-3.6,2.5
			c-0.2,0.3-0.5,0.6-0.7,0.8l-0.6,0.8l-0.6,1l-0.5,1.1c-2.9,6.1-5.7,12.1-8.6,18.1c-5.7,12-11.2,23.7-16.6,35.1
			c-0.7,1.4-1.3,2.8-2,4.3l-0.5,1.1l-0.4,0.9l-0.3,1l-0.2,1c-0.4,2.7,0.3,5.4,1.9,7.5c0.4,0.5,0.8,1,1.3,1.5c0.5,0.4,1,0.8,1.5,1.2
			c0.2,0.2,0.6,0.3,0.9,0.5l0.2,0.1l0.1,0.1c-0.1-0.1,0,0,0,0l0.5,0.2c0.7,0.3,1.3,0.6,2,0.9c2.7,1.3,5.3,2.5,8,3.7
			c10.5,4.9,20.4,9.5,29.5,13.8C173.8,283.6,198.2,295,198.2,295z"/>
	</g>
	<path id="XMLID_39_" class="st4" d="M246.5,296.8l6-12.6c0.6-1.2,1.9-1.7,3.1-1.1h0c1.2,0.6,1.7,1.9,1.1,3.1l-6,12.6
		c-0.6,1.2-1.9,1.7-3.1,1.1h0C246.5,299.4,246,298,246.5,296.8z"/>
	<path id="XMLID_38_" class="st4" d="M224.7,287.1l6-12.6c0.6-1.2,1.9-1.7,3.1-1.1l0,0c1.2,0.6,1.7,1.9,1.1,3.1l-6,12.6
		c-0.6,1.2-1.9,1.7-3.1,1.1l0,0C224.6,289.6,224.1,288.2,224.7,287.1z"/>
	<path id="XMLID_35_" class="st4" d="M202.5,276.4l6-12.6c0.6-1.2,1.9-1.7,3.1-1.1l0,0c1.2,0.6,1.7,1.9,1.1,3.1l-6,12.6
		c-0.6,1.2-1.9,1.7-3.1,1.1v0C202.4,278.9,201.9,277.6,202.5,276.4z"/>
	<path id="XMLID_9_" class="st4" d="M179.5,264.6l6-12.6c0.6-1.2,1.9-1.7,3.1-1.1l0,0c1.2,0.6,1.7,1.9,1.1,3.1l-6,12.6
		c-0.6,1.2-1.9,1.7-3.1,1.1l0,0C179.5,267.1,179,265.7,179.5,264.6z"/>
	<path id="XMLID_8_" class="st4" d="M157,255l6-12.6c0.6-1.2,1.9-1.7,3.1-1.1v0c1.2,0.6,1.7,1.9,1.1,3.1l-6,12.6
		c-0.6,1.2-1.9,1.7-3.1,1.1v0C157,257.6,156.5,256.2,157,255z"/>
	<path id="XMLID_5_" class="st4" d="M135.5,243.7l6-12.6c0.6-1.2,1.9-1.7,3.1-1.1l0,0c1.2,0.6,1.7,1.9,1.1,3.1l-6,12.6
		c-0.6,1.2-1.9,1.7-3.1,1.1l0,0C135.4,246.2,135,244.8,135.5,243.7z"/>
	<path id="XMLID_6_" class="st4" d="M357.5,334.9l-52.9-25.2c-5.6-2.7-8-9.4-5.3-15v0c2.7-5.6,9.4-8,15-5.3l52.9,25.2
		c5.6,2.7,8,9.4,5.3,15v0C369.9,335.2,363.1,337.6,357.5,334.9z"/>
	<path id="XMLID_7_" class="st4" d="M345.3,364.3l38-79.9c1.4-3,5-4.3,8-2.8h0c3,1.4,4.3,5,2.8,8l-38,79.9c-1.4,3-5,4.3-8,2.8h0
		C345.1,370.9,343.8,367.3,345.3,364.3z"/>
	<path id="XMLID_3_" class="st9" d="M270.9,343.3l47.4-99.5c2.7-5.7,9.6-8.2,15.3-5.4l0,0c5.7,2.7,8.2,9.6,5.4,15.3l-47.4,99.5
		c-2.7,5.7-9.6,8.2-15.3,5.4l0,0C270.6,355.9,268.2,349,270.9,343.3z"/>
</g>
<g id="Layer_2">
	<g id="XMLID_4_">
		<g id="XMLID_61_">
			<path id="XMLID_66_" class="st2" d="M306.8,367.4l-25.2,9.8c-0.9,0.4-2,0.2-2.7-0.5L247.1,348c-0.7-0.6-1.1-1.4-1.3-2.3l-9-47.7
				c0-0.2-0.1-0.4-0.2-0.6c-0.8-2.1-6.6-13.2-21.7-4.7c-12.3,6.9-7.8,15.4-6.8,28.4c0.9,12,5.8,30.9,6.6,33.7
				c0.1,0.2,0.2,0.5,0.3,0.7l25.5,46.4c0,0-17.8,20.4-16.8,23.4c0.9,2.6-6.2,6.3,25.8,33.3c0,0-27.7,35.3-5.7,56.3
				c22,21,83.2,71.7,83.2,71.7l55.3,37.4c1.1,0.7,2.2,1.3,3.4,1.7l78.6,24.7l13,4.2c0.9,0.3,1.7,0.7,2.4,1.3l28.7,24.2
				c0,0,8.1,4.9,10.3,3.4s5.4-2.7,7.7-8.2"/>
			<g id="XMLID_62_">
				<path id="XMLID_34_" class="st0" d="M240.4,401.8l67-6.7l39,14.9c0.3,0.1,21.4,8.3,21.9,8.9c1.2,1.8,14.2,8.6,9.6,20.8
					c-6.3,16.9-17.6,8-24.4,5.9c-10.2-3.2-46.9-17.7-46.9-17.7l-48.2,8.8"/>
				<path id="XMLID_33_" d="M240,397.3l67-6.7l1.1-0.1l1,0.4l39.9,15.2l9.9,3.9l5,2c1.7,0.7,3.3,1.3,5.1,2.1
					c0.2,0.1,0.5,0.2,0.7,0.3l0.4,0.2l0,0l0.1,0.1c0.2,0.1,0.3,0.2,0.5,0.3c0.3,0.2,0.6,0.5,0.9,0.7c0.1,0.1,0.3,0.3,0.4,0.4
					c0.1,0.2-0.5-0.6-0.2-0.3l0,0l0.1,0.1c0.1,0.1,0.2,0.2,0.2,0.2c0,0,0,0,0,0l2,1.7c1.5,1.2,3,2.6,4.4,4.3
					c1.4,1.6,2.6,3.5,3.5,5.7c0.2,0.5,0.4,1.1,0.6,1.7l0.3,0.8l0.2,0.9c0.1,0.6,0.2,1.2,0.3,1.8l0,1.8c0,0.6-0.1,1.2-0.1,1.8
					c-0.1,0.6-0.2,1.2-0.3,1.7c-0.3,1.1-0.6,2.2-1,3.3l-0.5,1.3l-0.7,1.5l-0.8,1.4c-0.3,0.5-0.6,0.9-0.9,1.4
					c-1.2,1.8-2.9,3.7-5.2,5.1c-1.1,0.7-2.4,1.2-3.7,1.5c-1.3,0.3-2.6,0.4-3.8,0.4c-2.5-0.1-4.6-0.7-6.5-1.3
					c-1.9-0.7-3.6-1.5-5.2-2.1c-0.8-0.3-1.5-0.6-2.2-0.9l-2.5-0.8c-1.7-0.6-3.5-1.2-5.2-1.8c-6.7-2.4-13.4-5-20-7.5l-19.9-7.8l0,0
					l2.5,0.2l-48.5,7.2l-1-5.6l47.9-10.5l1.1-0.2l1.3,0.5l0,0l19.8,7.7c6.6,2.5,13.2,5.1,19.9,7.5c1.7,0.6,3.3,1.2,4.9,1.7l2.6,0.9
					c1,0.4,1.9,0.7,2.8,1.1c1.7,0.7,3.2,1.4,4.6,1.9c1.4,0.5,2.8,0.8,3.8,0.8c1.1,0,1.9-0.2,2.7-0.6c0.8-0.5,1.6-1.3,2.3-2.4
					l0.5-0.9l0.5-0.9l0.4-0.9l0.5-1.2c0.2-0.6,0.4-1.2,0.6-1.8l0.1-0.9c0-0.3,0.1-0.6,0.1-0.9c0-0.3,0-0.6,0-0.9
					c0-0.3-0.1-0.6-0.1-0.8l-0.1-0.4l-0.1-0.4c-0.1-0.3-0.2-0.6-0.3-0.8c-0.5-1.1-1.2-2.2-2.1-3.3c-0.9-1.1-2-2.1-3.3-3.2l-2.1-1.7
					c-0.3-0.3-0.7-0.6-1-0.9L365,422l-0.1-0.1l0,0c0.2,0.3-0.4-0.5-0.3-0.3c0.1,0.1,0.1,0.2,0.2,0.3c0.2,0.2,0.4,0.4,0.6,0.5
					c0.1,0.1,0.2,0.1,0.3,0.2c0.1,0,0.1,0.1,0.1,0l0,0l-0.2-0.1l-0.5-0.2c-1.5-0.7-3.1-1.3-4.8-2l-4.9-2l-9.9-3.9l-39.8-15.2l2,0.3
					l-67,6.7L240,397.3z"/>
			</g>
		</g>
		<g id="XMLID_57_">
			<path id="XMLID_31_" class="st0" d="M249.4,458.4l44.4-3.9c0.7-0.1,1.5,0,2.2,0.2l41.9,11.1c0.3,0.1,0.6,0.2,0.9,0.4
				c2.8,1.6,17.7,10.9,14.1,23.9c-3.6,13-17.1,13.4-19.6,13.4c-0.2,0-0.5,0-0.7-0.1l-37.3-7.7c-0.6-0.1-1.2-0.1-1.8,0.2l-17.6,7.6"
				/>
			<path id="XMLID_30_" d="M249,454c0,0,3.2-0.3,8.8-0.9c5.6-0.5,13.6-1.3,23.3-2.2c2.4-0.2,4.9-0.5,7.5-0.7c1.3-0.1,2.6-0.2,4-0.4
				l0.5,0l0.7-0.1c0.6,0,1.2,0,1.8,0c0.6,0.1,1.2,0.2,1.7,0.3l1,0.3c5.4,1.4,11,2.9,16.9,4.4c5.8,1.5,11.9,3.1,18,4.8
				c1.5,0.4,3.1,0.8,4.6,1.2l1.2,0.3l0.4,0.1c0.3,0.1,0.4,0.1,0.7,0.2c0.4,0.2,0.9,0.4,1.3,0.6c0.8,0.5,1.6,1,2.3,1.5
				c3,2,5.8,4.3,8.3,7.1c2.5,2.8,4.7,6.2,5.8,10.3c0.6,2,0.8,4.2,0.7,6.3c-0.1,1.1-0.2,2.1-0.4,3.1l-0.2,0.8l-0.1,0.4l-0.1,0.4
				l0,0.1l0,0.1l-0.4,1.1l-0.2,0.6c-0.1,0.2-0.1,0.4-0.3,0.6l-0.7,1.5c-0.5,1.1-1.1,1.8-1.6,2.7l-0.4,0.6l-0.5,0.6l-1,1.2
				c-0.7,0.7-1.5,1.4-2.2,2c-3.2,2.5-6.8,3.9-10.3,4.7c-1.8,0.4-3.5,0.6-5.3,0.7c-0.2,0-0.4,0-0.7,0l-0.4,0l-0.2,0
				c0.4,0-0.6,0-0.5,0l-0.1,0l-0.5-0.1l-0.5-0.1l-0.1,0l-0.1,0l-0.3-0.1c-0.7-0.2-1.4-0.3-2.1-0.5c-2.8-0.6-5.6-1.2-8.3-1.8
				c-5.4-1.2-10.5-2.3-15.3-3.3c-2.4-0.5-4.6-1-6.8-1.5c-1.1-0.2-2.1-0.5-3.1-0.7c-0.3-0.1-0.5-0.1-0.8-0.2l-0.3-0.1
				c0.2,0,0.2,0,0.3,0c0.1,0,0.3,0,0.4,0c0.1,0,0.1,0,0.2-0.1l0.1,0l-0.2,0.1c-3.6,1.5-6.8,2.7-9.5,3.6c-2.7,0.9-4.8,1.5-6.3,1.9
				c-1.5,0.4-2.3,0.5-2.3,0.5l-2.2-5.1c0,0,0.7-0.5,2-1.3c1.3-0.8,3.2-2,5.7-3.3c2.5-1.4,5.6-2.9,9.2-4.5l0.2-0.1
				c0.1-0.1,0.3-0.1,0.4-0.2c0.3-0.1,0.6-0.2,0.9-0.3c0.6-0.1,1.3-0.2,1.9-0.2c0.3,0,0.6,0,1,0.1l0.5,0.1c0.3,0.1,0.5,0.1,0.8,0.2
				c1,0.2,2.1,0.4,3.2,0.6c2.2,0.4,4.4,0.9,6.8,1.4c4.7,1,9.9,2,15.3,3.1c2.7,0.5,5.5,1.1,8.4,1.7c0.7,0.1,1.4,0.3,2.2,0.4l0.3,0.1
				l0.1,0l0.1,0c-0.9-0.1-0.2,0-0.4-0.1l0.6,0.1l0.1,0c0.1,0-0.8,0-0.4,0l0.1,0l0.2,0c0.1,0,0.3,0,0.4,0c1.2-0.1,2.4-0.2,3.6-0.5
				c2.4-0.5,4.6-1.5,6.3-2.9c0.4-0.4,0.8-0.7,1.2-1.1l0.5-0.6l0.3-0.3l0.2-0.4c0.3-0.5,0.7-0.9,0.8-1.4c0.1-0.2,0.2-0.4,0.3-0.6
				c0.1-0.1,0.1-0.3,0.2-0.5l0.2-0.6l0.4-1.1l0-0.1l0-0.1c0.1-0.3-0.1,0.3-0.1,0.2l0-0.2l0.1-0.4c0.1-0.5,0.2-1.1,0.2-1.6
				c0.1-1.1-0.1-2.1-0.4-3.2c-0.6-2.1-1.9-4.3-3.7-6.4c-1.8-2-4-3.9-6.3-5.5c-0.6-0.4-1.2-0.8-1.8-1.1c0.1,0,0.1,0.1,0.2,0.1l0.1,0
				l-0.2-0.1l-1.2-0.3c-1.5-0.4-3.1-0.8-4.6-1.2c-6.1-1.6-12.2-3.2-18-4.8c-5.8-1.6-11.5-3-16.9-4.5l-1-0.3c-0.2,0-0.2,0-0.3-0.1
				c-0.1,0-0.2,0-0.2,0l-0.8,0.1c-1.3,0.1-2.7,0.2-4,0.3c-2.6,0.2-5.1,0.4-7.5,0.6c-9.6,0.8-17.7,1.4-23.3,1.9
				c-5.6,0.4-8.8,0.7-8.8,0.7L249,454z"/>
		</g>
		<g id="XMLID_53_">
			<path id="XMLID_28_" class="st0" d="M386.9,474.4c0,0,14,44,60,59.5"/>
			<path id="XMLID_27_" d="M388.6,473.9c0,0,0.1,0.3,0.3,0.9c0.2,0.6,0.6,1.4,1.1,2.5c1,2.1,2.4,5.1,4.5,8.6c2,3.5,4.6,7.4,7.6,11.3
				c1.5,2,3.2,4,4.9,5.9c1.7,1.9,3.6,3.8,5.5,5.7c1.9,1.8,3.9,3.5,5.9,5.2c1,0.8,2,1.6,3.1,2.3c1,0.7,2,1.5,3.1,2.1
				c1,0.7,2,1.4,3,1.9c1,0.6,2,1.2,3,1.7c1,0.5,1.9,1.1,2.9,1.5c0.9,0.5,1.9,0.9,2.7,1.3c0.9,0.4,1.8,0.8,2.6,1.1
				c0.8,0.3,1.6,0.7,2.3,1c1.5,0.5,2.8,1.1,3.8,1.4c2.2,0.7,3.4,1.2,3.4,1.2l-2.9,8.5c0,0-1.4-0.4-3.7-1.3c-1.2-0.4-2.5-1.1-4.1-1.8
				c-0.8-0.3-1.6-0.8-2.5-1.2c-0.9-0.5-1.8-0.9-2.7-1.4c-0.9-0.5-1.9-1.1-2.9-1.7c-1-0.6-2-1.2-3-1.9c-1-0.6-2.1-1.4-3.1-2.1
				c-1.1-0.7-2.1-1.5-3.2-2.3c-1.1-0.8-2.1-1.7-3.2-2.5c-1.1-0.9-2.1-1.8-3.1-2.7c-2.1-1.9-4.1-3.9-6-5.9c-1.9-2.1-3.8-4.2-5.5-6.4
				c-1.7-2.2-3.3-4.4-4.8-6.5c-2.9-4.4-5.3-8.6-7.2-12.4c-1.9-3.7-3.2-7-4.1-9.3c-0.4-1.1-0.7-2.1-0.9-2.7c-0.2-0.6-0.3-1-0.3-1
				L388.6,473.9z"/>
		</g>
		<g id="XMLID_37_">
			<path id="XMLID_24_" class="st0" d="M426,441.6c0,0-38.4-49.5-44.7-77c-4.6-19.9,3.4-44.1,8.2-56c2.7-6.7,7.7-12.3,14.2-15.4
				c6.9-3.3,15.8-4.1,22.4,7.5c12.5,22,10,44,13,48s14.4,20,19.5,24.5c4.5,4,39.1,39.6,44.3,45.8c0.5,0.5,0.8,1.2,1,1.9l31.3,92.8
				c0.8,2.5,2.8,4.5,5.3,5.3l37.5,12.5c4.3,1.4,6.5,6.3,4.8,10.5l-56.5,133.7"/>
			<path id="XMLID_15_" d="M425,442.3c0,0-1.7-1.9-4.8-5.5c-3.1-3.6-7.5-9-12.8-16.1c-1.3-1.8-2.7-3.7-4.2-5.7
				c-1.4-2-2.9-4.1-4.4-6.3c-1.5-2.2-3.1-4.5-4.6-7c-1.5-2.5-3.1-5-4.7-7.8c-3.2-5.4-6.3-11.3-9.1-18c-0.6-1.7-1.3-3.4-1.9-5.2
				c-0.3-0.9-0.5-1.8-0.8-2.8l-0.4-1.4L377,366l-0.1-0.4c0,0-0.1-0.4-0.1-0.3l0-0.2c-0.7-3.3-1.3-7.8-1.4-11.7
				c-0.1-4,0.1-8.1,0.6-12.2c0.5-4.1,1.2-8.2,2.2-12.3c1-4.1,2.1-8.2,3.4-12.4c0.7-2.1,1.4-4.1,2.1-6.2c0.4-1,0.8-2.1,1.2-3.1
				l0.2-0.5l0.2-0.4l0.3-0.7c0.2-0.5,0.6-1.2,0.8-1.8c2.3-4.5,5.5-8.5,9.7-11.7c1-0.8,2.1-1.5,3.3-2.2c0.6-0.3,1.1-0.6,1.7-0.9
				l0.2-0.1c0.1-0.1,0,0,0.3-0.2l0.4-0.2l0.8-0.3c0.6-0.2,1.3-0.5,2-0.8c0.7-0.2,1.3-0.4,2-0.6c0.7-0.2,1.4-0.3,2.1-0.4l1.1-0.2
				l1.1-0.1c3-0.2,6.2,0.4,9,1.8c2.8,1.4,5.1,3.4,6.9,5.6c0.9,1.1,1.7,2.2,2.4,3.4l0.5,0.9l0.1,0.2l0.2,0.3l0.2,0.4l0.8,1.5
				c1.2,2.3,2.3,4.5,3.3,6.9c1.9,4.6,3.5,9.5,4.6,14.4c1.2,4.9,1.9,9.9,2.5,14.8c0.3,2.4,0.6,4.9,0.9,7.1c0.1,0.5,0.2,1.1,0.3,1.5
				c0.1,0.4,0.2,0.8,0.3,0.9c0,0,0,0,0,0c0-0.1-0.1-0.2-0.2-0.2l0.5,0.7l1.1,1.5c2.9,4,5.8,7.9,8.8,11.7c1.5,1.9,3,3.8,4.6,5.6
				c0.8,0.9,1.5,1.8,2.3,2.6c0.4,0.4,0.8,0.8,1.1,1.1l1.3,1.2c0.9,0.9,2,1.9,2.8,2.7l2.7,2.7c1.8,1.8,3.6,3.6,5.3,5.4
				c7.1,7.2,14.1,14.4,21.1,21.7c3.5,3.7,7,7.3,10.5,11.1l1.3,1.5l0.2,0.2l0.2,0.3c0.2,0.3,0.4,0.5,0.6,0.8c0.3,0.5,0.6,1,0.9,1.6
				c0.1,0.3,0.2,0.6,0.3,0.8l0.2,0.5l0.3,0.9l0.6,1.8c0.8,2.4,1.6,4.8,2.4,7.1c3.2,9.5,6.4,19,9.6,28.4
				c6.3,18.6,12.4,36.9,18.4,54.6c0.2,0.4,0.5,0.8,0.8,1.1c0.2,0.1,0.4,0.3,0.6,0.4c0.1,0.1,0.2,0.1,0.3,0.1l0.5,0.2
				c2.2,0.7,4.4,1.5,6.6,2.2c4.4,1.5,8.8,2.9,13.1,4.4c4.3,1.4,8.6,2.9,12.8,4.3c1.1,0.4,2.1,0.7,3.2,1.1l0.8,0.3l0.4,0.1l0.2,0.1
				l0.5,0.2l0.4,0.2c0.1,0.1,0.2,0.1,0.5,0.2c0.5,0.2,1,0.5,1.4,0.7c3.1,1.9,5.3,5.2,6,8.7c0.3,1.8,0.3,3.6-0.1,5.3
				c-0.1,0.4-0.2,0.9-0.4,1.3c-0.1,0.4-0.3,0.9-0.4,1.1l-0.6,1.5c-0.8,2-1.7,3.9-2.5,5.9c-1.7,3.9-3.3,7.7-4.9,11.4
				c-3.2,7.5-6.3,14.7-9.3,21.7c-11.9,27.8-21.8,51-28.8,67.2c-7,16.2-11,25.5-11,25.5l-8.3-3.5c0,0,3.9-9.3,10.6-25.6
				c6.8-16.3,16.5-39.6,28.2-67.5c2.9-7,6-14.3,9.1-21.8c1.6-3.8,3.2-7.6,4.8-11.5c0.8-1.9,1.6-3.9,2.5-5.9l0.6-1.5
				c0.1-0.3,0.1-0.3,0.2-0.4c0-0.1,0.1-0.2,0.1-0.3c0.1-0.4,0.1-0.7,0-1.1c-0.1-0.7-0.6-1.4-1.2-1.8c-0.1-0.1,0,0,0,0
				c0.1,0-0.1-0.1-0.3-0.1l-0.4-0.2l-1.3-0.4c-1-0.3-2.1-0.7-3.2-1.1c-4.2-1.4-8.5-2.8-12.8-4.3c-4.3-1.4-8.7-2.9-13.1-4.4
				c-2.2-0.7-4.4-1.5-6.6-2.2l-0.4-0.2l-0.7-0.2c-0.4-0.2-0.9-0.4-1.3-0.6c-0.8-0.4-1.6-1-2.4-1.6c-1.5-1.2-2.7-2.7-3.5-4.5
				c-0.2-0.4-0.5-1.2-0.6-1.3l-0.2-0.6l-0.1-0.4l-0.6-1.7c-0.4-1.1-0.8-2.3-1.1-3.4c-0.8-2.3-1.5-4.5-2.3-6.8
				c-1.5-4.6-3.1-9.1-4.6-13.7c-3.1-9.2-6.3-18.6-9.4-28c-3.2-9.4-6.4-18.9-9.6-28.4c-0.8-2.4-1.6-4.8-2.4-7.1l-1.1-3.1l0-0.1
				c0,0,0,0,0,0l-0.2-0.2l-1.1-1.3c-3.3-3.6-6.8-7.3-10.2-10.9c-6.9-7.3-13.9-14.5-20.9-21.7c-1.8-1.8-3.5-3.6-5.3-5.3l-2.6-2.6
				c-0.9-0.9-1.7-1.6-2.5-2.5l-1.4-1.3c-0.6-0.5-1.1-1-1.5-1.6c-1-1-1.8-2-2.7-3c-1.7-2-3.3-4-4.8-6c-3.1-4-6-8-8.9-12l-1.1-1.5
				l-0.5-0.7c-0.2-0.3-0.4-0.7-0.6-1c-0.2-0.3-0.3-0.6-0.4-0.8c-0.4-1.1-0.6-1.9-0.8-2.6c-0.2-0.8-0.3-1.5-0.4-2.1
				c-0.4-2.7-0.6-5.1-0.9-7.5c-0.5-4.8-1.2-9.3-2.3-13.8c-1-4.4-2.3-8.7-4-12.8c-0.8-2-1.8-4.1-2.7-5.9l-0.8-1.5l-0.2-0.4
				c-0.1-0.1,0,0-0.1-0.1l-0.1-0.2l-0.4-0.6c-0.5-0.9-1.1-1.6-1.6-2.3c-1.1-1.4-2.4-2.5-3.7-3.1c-1.3-0.7-2.7-0.9-4.3-0.9l-0.6,0
				l-0.6,0.1c-0.4,0-0.8,0.2-1.2,0.2c-0.4,0.1-0.8,0.2-1.2,0.4c-0.4,0.2-0.7,0.3-1.2,0.4l-0.8,0.3l-0.4,0.2c0.2-0.1,0,0,0,0
				l-0.2,0.1c-0.4,0.2-0.8,0.4-1.2,0.6c-0.8,0.4-1.6,1-2.3,1.5c-2.9,2.2-5.3,5.1-7,8.4l-0.6,1.2L394,310l-0.2,0.4
				c0.1-0.1,0,0.1,0,0.1l-0.1,0.2c-0.4,1-0.8,1.9-1.1,2.9c-0.7,1.9-1.4,3.9-2.1,5.8c-1.3,3.9-2.4,7.7-3.3,11.6
				c-0.9,3.8-1.6,7.6-2.1,11.3c-0.5,3.7-0.6,7.4-0.6,10.9c0.1,1.7,0.1,3.5,0.3,5.1c0.1,1.5,0.5,3.4,0.8,5.2c0.4,1.6,0.9,3.1,1.3,4.6
				c0.5,1.6,1.1,3.1,1.7,4.7c0.5,1.5,1.2,3,1.9,4.5c0.6,1.5,1.3,3,2,4.4c0.7,1.4,1.4,2.9,2,4.3c0.7,1.4,1.4,2.7,2.1,4.1
				c1.4,2.7,2.8,5.2,4.2,7.7c1.3,2.5,2.8,4.9,4,7.1c2.7,4.5,5.2,8.7,7.5,12.5c4.6,7.5,8.3,13.3,10.8,17.3c2.5,4,3.9,6.1,3.9,6.1
				L425,442.3z"/>
		</g>
	</g>
</g>
<g id="Layer_6">
	<ellipse id="XMLID_36_" class="st10" cx="306.6" cy="368.5" rx="3.2" ry="3"/>
</g>
</svg>
